<?xml version="1.0" encoding="UTF-8" standalone="no"?>
<svg
   xmlns:dc="http://purl.org/dc/elements/1.1/"
   xmlns:cc="http://creativecommons.org/ns#"
   xmlns:rdf="http://www.w3.org/1999/02/22-rdf-syntax-ns#"
   xmlns:svg="http://www.w3.org/2000/svg"
   xmlns="http://www.w3.org/2000/svg"
   xmlns:xlink="http://www.w3.org/1999/xlink"
   xmlns:sodipodi="http://sodipodi.sourceforge.net/DTD/sodipodi-0.dtd"
   xmlns:inkscape="http://www.inkscape.org/namespaces/inkscape"
   width="60.0px"
   height="60.0px"
   viewBox="0 0 60.0 60.0"
   version="1.1"
   id="SVGRoot"
   sodipodi:docname="artist.svg"
   inkscape:version="1.0.1 (3bc2e813f5, 2020-09-07)">
  <defs
     id="defs6693">
    <linearGradient
       inkscape:collect="always"
       id="linearGradient7311">
      <stop
         style="stop-color:#999999;stop-opacity:1;"
         offset="0"
         id="stop7307" />
      <stop
         style="stop-color:#ff3333;stop-opacity:1"
         offset="1"
         id="stop7309" />
    </linearGradient>
    <linearGradient
       inkscape:collect="always"
       xlink:href="#linearGradient7311"
       id="linearGradient7313"
       x1="48"
       y1="33"
       x2="49"
       y2="32"
       gradientUnits="userSpaceOnUse"
       gradientTransform="matrix(1.5263158,0,0,1.5077647,-22.368421,-31.201883)" />
  </defs>
  <sodipodi:namedview
     id="base"
     pagecolor="#ffffff"
     bordercolor="#666666"
     borderopacity="1.0"
     inkscape:pageopacity="0.0"
     inkscape:pageshadow="2"
     inkscape:zoom="5.6"
     inkscape:cx="-2.2330892"
     inkscape:cy="8.2317001"
     inkscape:document-units="px"
     inkscape:current-layer="layer7"
     inkscape:document-rotation="0"
     showgrid="true"
     inkscape:window-width="1920"
     inkscape:window-height="1017"
     inkscape:window-x="-8"
     inkscape:window-y="-8"
     inkscape:window-maximized="1">
    <inkscape:grid
       type="xygrid"
       id="grid7263" />
  </sodipodi:namedview>
  <metadata
     id="metadata6696">
    <rdf:RDF>
      <cc:Work
         rdf:about="">
        <dc:format>image/svg+xml</dc:format>
        <dc:type
           rdf:resource="http://purl.org/dc/dcmitype/StillImage" />
        <dc:title></dc:title>
      </cc:Work>
    </rdf:RDF>
  </metadata>
  <g
     inkscape:label="Person"
     inkscape:groupmode="layer"
     id="layer1">
    <path
       style="fill:#000000;stroke:none;stroke-width:1px;stroke-linecap:butt;stroke-linejoin:miter;stroke-opacity:1;fill-opacity:1"
       d="m 5,55 c 0,0 0,-15 15,-15 15,0 5,0 20,0 15,0 15,15 15,15 z"
       id="path7272" />
    <circle
       style="fill:#000000;stroke:none;stroke-width:1.88976;stroke-linecap:round;stroke-linejoin:round"
       id="path7278"
       cx="30"
       cy="25"
       r="10" />
  </g>
  <g
     inkscape:groupmode="layer"
     id="layer6"
     inkscape:label="Middle">
    <circle
       style="fill:#1f1f00;fill-opacity:1;stroke:none;stroke-width:1.88976;stroke-linecap:round;stroke-linejoin:round;stroke-opacity:1"
       id="path7298"
       cx="34.67857"
       cy="10.357142"
       r="4.5" />
  </g>
  <g
     inkscape:groupmode="layer"
     id="layer5"
     inkscape:label="Hat">
    <path
       style="fill:#2f2f00;stroke:none;stroke-width:1px;stroke-linecap:butt;stroke-linejoin:miter;stroke-opacity:1;fill-opacity:1"
       d="m 20,25 c 0,0 2,-5 10,-5 8,0 10,5 10,5 0,0 6,3 10,1 4,-2 5,-6 -2,-9 C 41,14 36,12 30,10 24,8 15,5 11,8 c -4,3 -3,7 -1,10 2,3 10,7 10,7 z"
       id="path7293" />
  </g>
  <g
     inkscape:groupmode="layer"
     id="layer7"
     inkscape:label="Paintbrush">
    <path
       style="fill:#d38d5f;stroke:#d38d5f;stroke-width:7.55905512;stroke-linecap:round;stroke-linejoin:miter;stroke-miterlimit:4;stroke-dasharray:none;stroke-opacity:1"
       d="M 22,49 48,20"
       id="path7301"
       sodipodi:nodetypes="cc" />
    <path
       style="fill:url(#linearGradient7313);fill-opacity:1;stroke:none;stroke-width:1.51701px;stroke-linecap:butt;stroke-linejoin:miter;stroke-opacity:1"
       d="m 57,8 c 0,0 0,3.015529 -3.052632,4.523294 -3.052631,1.507765 -6.105263,-1.507765 -9.157894,1.507765 -3.052632,3.015529 -3.052632,9.046588 0,10.554353 3.052631,1.507765 7.631579,3.015529 10.68421,-4.523294 C 58.526316,12.523294 57,8 57,8 Z"
       id="path7305" />
  </g>
</svg>
