<?xml version="1.0" encoding="UTF-8" standalone="no"?>
<svg
   xmlns:dc="http://purl.org/dc/elements/1.1/"
   xmlns:cc="http://creativecommons.org/ns#"
   xmlns:rdf="http://www.w3.org/1999/02/22-rdf-syntax-ns#"
   xmlns:svg="http://www.w3.org/2000/svg"
   xmlns="http://www.w3.org/2000/svg"
   xmlns:sodipodi="http://sodipodi.sourceforge.net/DTD/sodipodi-0.dtd"
   xmlns:inkscape="http://www.inkscape.org/namespaces/inkscape"
   width="60.0px"
   height="60.0px"
   viewBox="0 0 60.0 60.0"
   version="1.1"
   id="SVGRoot"
   sodipodi:docname="edit.svg"
   inkscape:version="1.0.1 (3bc2e813f5, 2020-09-07)">
  <defs
     id="defs833" />
  <sodipodi:namedview
     id="base"
     pagecolor="#ffffff"
     bordercolor="#666666"
     borderopacity="1.0"
     inkscape:pageopacity="0.0"
     inkscape:pageshadow="2"
     inkscape:zoom="0.49497475"
     inkscape:cx="-346.18167"
     inkscape:cy="-309.57989"
     inkscape:document-units="px"
     inkscape:current-layer="layer1"
     inkscape:document-rotation="0"
     showgrid="true"
     inkscape:window-width="1920"
     inkscape:window-height="1017"
     inkscape:window-x="-8"
     inkscape:window-y="-8"
     inkscape:window-maximized="1"
     showguides="false">
    <inkscape:grid
       type="xygrid"
       id="grid1403" />
  </sodipodi:namedview>
  <metadata
     id="metadata836">
    <rdf:RDF>
      <cc:Work
         rdf:about="">
        <dc:format>image/svg+xml</dc:format>
        <dc:type
           rdf:resource="http://purl.org/dc/dcmitype/StillImage" />
        <dc:title />
      </cc:Work>
    </rdf:RDF>
  </metadata>
  <g
     inkscape:groupmode="layer"
     id="layer2"
     inkscape:label="Line"
     style="display:inline;opacity:0.398693">
    <path
       style="fill:#000000;fill-opacity:1;stroke:none;stroke-width:9.07087;stroke-linejoin:round"
       id="path1447"
       d="m 58.551763,38.147974 c -1.14454,-1.476892 -1.827834,-2.411506 -3.561845,-3.223301 -1.799054,-0.640588 -3.710114,-0.736691 -5.598752,-0.632869 -1.763228,0.06027 -3.459816,0.54212 -5.113603,1.120966 -3.689558,1.589228 -7.220894,3.628485 -10.520928,5.901392 -1.431497,0.910911 -2.511246,2.268128 -3.706422,3.457023 -1.297273,1.393087 -2.642127,2.715986 -4.105823,3.933534 -0.595192,0.510995 -1.223792,0.995757 -1.879068,1.428468 -0.188167,0.124256 -0.776007,0.459704 -0.5809,0.346658 6.352086,-3.680459 7.665262,-4.397317 5.088304,-2.977439 -1.563086,0.839505 -3.173836,1.580944 -4.82933,2.217354 -1.574114,0.57414 -3.232184,0.858465 -4.862429,1.226466 -1.787088,0.400262 -3.631819,0.389278 -5.453478,0.414549 -0.900931,0.05332 -1.788559,-0.02044 -2.677738,-0.150014 0,0 -6.0868431,4.261943 -6.0868431,4.261943 v 0 c 0.9271143,0.190004 1.8475597,0.319899 2.7995889,0.233937 1.8252761,-0.02289 3.6748922,0.04529 5.4810042,-0.246391 1.661707,-0.358457 3.320446,-0.73166 4.963821,-1.163216 1.6547,-0.639119 3.299936,-1.287169 4.865607,-2.133654 3.520341,-1.78406 7.062617,-3.643707 10.050684,-6.242411 1.433579,-1.240451 2.719949,-2.621073 4.046509,-3.972777 1.206892,-1.201742 2.356847,-2.484815 3.835227,-3.364254 2.338874,-1.604428 0.700879,-0.460209 -5.279944,2.95436 -0.226573,0.129355 0.450385,-0.263738 0.680395,-0.386876 0.764309,-0.409178 1.536476,-0.810536 2.329511,-1.161097 1.590254,-0.65294 3.26903,-1.169654 4.989647,-1.300153 1.808586,-0.152943 3.624731,-0.163513 5.386309,0.354267 1.711344,0.648257 2.231809,1.441511 3.270424,2.894801 0,0 6.470072,-3.791266 6.470072,-3.791266 z" />
  </g>
  <g
     inkscape:groupmode="layer"
     id="layer8"
     inkscape:label="Outline">
    <path
       style="fill:none;stroke:#000000;stroke-width:3;stroke-linecap:butt;stroke-linejoin:miter;stroke-opacity:1;stroke-miterlimit:4;stroke-dasharray:none"
       d="M 5,55 20,50 55,15 V 10 L 50,5 H 45 L 10,40 Z"
       id="path4577" />
  </g>
  <g
     inkscape:label="Solid"
     inkscape:groupmode="layer"
     id="layer1"
     style="display:inline">
    <path
       style="fill:#e9b377;fill-opacity:1;stroke:none;stroke-width:1px;stroke-linecap:butt;stroke-linejoin:miter;stroke-opacity:1"
       d="m 45,5 h 5 l 5,5 v 5 L 20,50 5,55 10,40 45,5"
       id="path1412" />
    <path
       style="fill:#ff9191;fill-opacity:0.548387;stroke:none;stroke-width:1px;stroke-linecap:butt;stroke-linejoin:miter;stroke-opacity:1"
       d="M 15,40 H 10 L 45,5 h 5 z"
       id="path1414" />
    <path
       style="fill:#d33e3e;fill-opacity:0.689516;stroke:none;stroke-width:1px;stroke-linecap:butt;stroke-linejoin:miter;stroke-opacity:1"
       d="M 15,40 20,45 55,10 50,5 Z"
       id="path1416" />
    <path
       style="fill:#7d0000;fill-opacity:0.75;stroke:none;stroke-width:1px;stroke-linecap:butt;stroke-linejoin:miter;stroke-opacity:1"
       d="M 20,50 V 45 L 55,10 v 5 z"
       id="path3246" />
    <path
       style="fill:#ffffff;stroke:none;stroke-width:1px;stroke-linecap:butt;stroke-linejoin:miter;stroke-opacity:1;fill-opacity:0.58064514"
       d="M 5,55 15,40 h -4 z"
       id="path4581" />
  </g>
  <g
     inkscape:groupmode="layer"
     id="layer9"
     inkscape:label="Top">
    <path
       style="display:inline;fill:#222222;fill-opacity:1;stroke:none;stroke-width:1px;stroke-linecap:butt;stroke-linejoin:miter;stroke-opacity:1"
       d="m 7,49 c 0,0 2,0 3,1 1,1 1,3 1,3 l -6,2 z"
       id="path1420" />
  </g>
</svg>
