<?xml version="1.0" encoding="UTF-8" standalone="no"?>
<svg
   xmlns:dc="http://purl.org/dc/elements/1.1/"
   xmlns:cc="http://creativecommons.org/ns#"
   xmlns:rdf="http://www.w3.org/1999/02/22-rdf-syntax-ns#"
   xmlns:svg="http://www.w3.org/2000/svg"
   xmlns="http://www.w3.org/2000/svg"
   xmlns:sodipodi="http://sodipodi.sourceforge.net/DTD/sodipodi-0.dtd"
   xmlns:inkscape="http://www.inkscape.org/namespaces/inkscape"
   width="60.0px"
   height="60.0px"
   viewBox="0 0 60.0 60.0"
   version="1.1"
   id="SVGRoot"
   sodipodi:docname="error.svg"
   inkscape:version="1.0.1 (3bc2e813f5, 2020-09-07)">
  <defs
     id="defs1584">
    <inkscape:path-effect
       effect="fillet_chamfer"
       id="path-effect2315"
       is_visible="true"
       lpeversion="1"
       satellites_param="F,0,1,1,0,2.1213203,0,1 @ F,0,1,1,0,2.1213203,0,1 @ F,0,1,1,0,2.1213203,0,1 @ F,0,1,1,0,2.1213203,0,1 @ F,0,1,1,0,2.1213203,0,1 @ F,0,0,1,0,2.1213203,0,1 @ F,0,1,1,0,2.1213203,0,1 @ F,0,1,1,0,2.1213203,0,1 @ F,0,1,1,0,2.1213203,0,1 @ F,0,1,1,0,2.1213203,0,1 @ F,0,1,1,0,2.1213203,0,1 @ F,0,1,1,0,2.1213203,0,1"
       unit="px"
       method="auto"
       mode="F"
       radius="0"
       chamfer_steps="1"
       flexible="false"
       use_knot_distance="true"
       apply_no_radius="true"
       apply_with_radius="true"
       only_selected="false"
       hide_knots="false" />
  </defs>
  <sodipodi:namedview
     id="base"
     pagecolor="#ffffff"
     bordercolor="#666666"
     borderopacity="1.0"
     inkscape:pageopacity="0.0"
     inkscape:pageshadow="2"
     inkscape:zoom="11.2"
     inkscape:cx="34.678617"
     inkscape:cy="29.021425"
     inkscape:document-units="px"
     inkscape:current-layer="layer1"
     inkscape:document-rotation="0"
     showgrid="true"
     inkscape:window-width="1920"
     inkscape:window-height="1017"
     inkscape:window-x="-8"
     inkscape:window-y="-8"
     inkscape:window-maximized="1">
    <inkscape:grid
       type="xygrid"
       id="grid2154" />
  </sodipodi:namedview>
  <metadata
     id="metadata1587">
    <rdf:RDF>
      <cc:Work
         rdf:about="">
        <dc:format>image/svg+xml</dc:format>
        <dc:type
           rdf:resource="http://purl.org/dc/dcmitype/StillImage" />
        <dc:title></dc:title>
      </cc:Work>
    </rdf:RDF>
  </metadata>
  <g
     inkscape:label="Layer 1"
     inkscape:groupmode="layer"
     id="layer1">
    <path
       style="fill:#ff5454;fill-opacity:1;stroke:#520000;stroke-width:1.88976;stroke-linecap:butt;stroke-linejoin:miter;stroke-miterlimit:4;stroke-dasharray:none;stroke-opacity:1"
       d="m 46.5,53.5 7,-7 a 2.1213203,2.1213203 90 0 0 0,-3 l -12,-12 a 2.1213203,2.1213203 90 0 1 0,-3 l 12,-12 a 2.1213203,2.1213203 90 0 0 0,-3 l -7,-7 a 2.1213203,2.1213203 0 0 0 -3,0 l -12,12 a 2.1213203,2.1213203 0 0 1 -3,0 l -12,-12 a 2.1213203,2.1213203 0 0 0 -3,0 l -7,7 a 2.1213203,2.1213203 90 0 0 0,3 l 12,12 a 2.1213203,2.1213203 90 0 1 0,3 l -12,12 a 2.1213203,2.1213203 90 0 0 0,3 l 7,7 a 2.1213203,2.1213203 0 0 0 3,0 l 12,-12 a 2.1213203,2.1213203 0 0 1 3,0 l 12,12 a 2.1213203,2.1213203 0 0 0 3,0 z"
       id="path2161"
       inkscape:path-effect="#path-effect2315"
       inkscape:original-d="M 45,55 55,45 40,30 55,15 45,5 30,20 15,5 5,15 20,30 5,45 15,55 30,40 Z" />
  </g>
</svg>
