<?xml version="1.0" encoding="UTF-8" standalone="no"?>
<svg
   xmlns:dc="http://purl.org/dc/elements/1.1/"
   xmlns:cc="http://creativecommons.org/ns#"
   xmlns:rdf="http://www.w3.org/1999/02/22-rdf-syntax-ns#"
   xmlns:svg="http://www.w3.org/2000/svg"
   xmlns="http://www.w3.org/2000/svg"
   xmlns:sodipodi="http://sodipodi.sourceforge.net/DTD/sodipodi-0.dtd"
   xmlns:inkscape="http://www.inkscape.org/namespaces/inkscape"
   width="60.0px"
   height="60.0px"
   viewBox="0 0 60.0 60.0"
   version="1.1"
   id="SVGRoot"
   sodipodi:docname="logo.svg"
   inkscape:export-filename="D:\Aku\git\OpenPipeline\web\img\logo.png"
   inkscape:export-xdpi="96"
   inkscape:export-ydpi="96"
   inkscape:version="1.0.1 (3bc2e813f5, 2020-09-07)">
  <defs
     id="defs833">
    <filter
       inkscape:collect="always"
       style="color-interpolation-filters:sRGB"
       id="filter1625"
       x="-0.047089447"
       width="1.0941789"
       y="-0.042380487"
       height="1.084761">
      <feGaussianBlur
         inkscape:collect="always"
         stdDeviation="0.88292714"
         id="feGaussianBlur1627" />
    </filter>
  </defs>
  <sodipodi:namedview
     id="base"
     pagecolor="#ffffff"
     bordercolor="#666666"
     borderopacity="1.0"
     inkscape:pageopacity="0.0"
     inkscape:pageshadow="2"
     inkscape:zoom="3.959798"
     inkscape:cx="18.121355"
     inkscape:cy="55.66977"
     inkscape:document-units="px"
     inkscape:current-layer="layer2"
     inkscape:document-rotation="0"
     showgrid="true"
     inkscape:window-width="1346"
     inkscape:window-height="1040"
     inkscape:window-x="52"
     inkscape:window-y="0"
     inkscape:window-maximized="0"
     showguides="false">
    <inkscape:grid
       type="xygrid"
       id="grid1403" />
  </sodipodi:namedview>
  <metadata
     id="metadata836">
    <rdf:RDF>
      <cc:Work
         rdf:about="">
        <dc:format>image/svg+xml</dc:format>
        <dc:type
           rdf:resource="http://purl.org/dc/dcmitype/StillImage" />
        <dc:title></dc:title>
      </cc:Work>
    </rdf:RDF>
  </metadata>
  <g
     inkscape:groupmode="layer"
     id="layer2"
     inkscape:label="Shadow"
     style="display:inline;opacity:0.437909;filter:url(#filter1625)">
    <path
       id="path1422-3"
       style="fill:#0c123b;fill-opacity:1;stroke:none;stroke-width:18.8296;stroke-linejoin:round"
       d="M 24.949219,5.0000004 A 17.5,17.5 0 0 0 7.5,22.5 17.5,17.5 0 0 0 25,40 17.5,17.5 0 0 0 37.5,34.746094 V 52.5 c 0,1.385 1.115,2.5 2.5,2.5 1.385,0 2.5,-1.115 2.5,-2.5 V 39.566406 C 43.282635,39.841922 44.120817,40 45,40 c 4.155,0 7.5,-3.345 7.5,-7.5 v -5 C 52.5,23.345 49.155,20 45,20 c -0.92334,0 -1.801668,0.174007 -2.617188,0.476562 A 17.5,17.5 0 0 0 25,5.0000004 a 17.5,17.5 0 0 0 -0.05078,0 z M 24.986329,10 a 12.5,12.5 0 0 1 0.01367,0 12.5,12.5 0 0 1 12.5,12.5 12.5,12.5 0 0 1 -12.5,12.5 A 12.5,12.5 0 0 1 12.5,22.5 12.5,12.5 0 0 1 24.986329,10 Z M 45,25 c 1.385,0 2.5,1.115 2.5,2.5 v 5 c 0,1.385 -1.115,2.5 -2.5,2.5 -1.385,0 -2.5,-1.115 -2.5,-2.5 v -5 C 42.5,26.115 43.615,25 45,25 Z" />
  </g>
  <g
     inkscape:label="Solid"
     inkscape:groupmode="layer"
     id="layer1">
    <path
       id="path1422"
       style="fill:#0c123b;stroke-width:18.8296;stroke-linejoin:round;fill-opacity:1"
       d="M 22.449219 5 A 17.5 17.5 0 0 0 5 22.5 A 17.5 17.5 0 0 0 22.5 40 A 17.5 17.5 0 0 0 35 34.746094 L 35 52.5 C 35 53.885 36.115 55 37.5 55 C 38.885 55 40 53.885 40 52.5 L 40 39.566406 C 40.782635 39.841922 41.620817 40 42.5 40 C 46.655 40 50 36.655 50 32.5 L 50 27.5 C 50 23.345 46.655 20 42.5 20 C 41.57666 20 40.698332 20.174007 39.882812 20.476562 A 17.5 17.5 0 0 0 22.5 5 A 17.5 17.5 0 0 0 22.449219 5 z M 22.486328 10 A 12.5 12.5 0 0 1 22.5 10 A 12.5 12.5 0 0 1 35 22.5 A 12.5 12.5 0 0 1 22.5 35 A 12.5 12.5 0 0 1 10 22.5 A 12.5 12.5 0 0 1 22.486328 10 z M 42.5 25 C 43.885 25 45 26.115 45 27.5 L 45 32.5 C 45 33.885 43.885 35 42.5 35 C 41.115 35 40 33.885 40 32.5 L 40 27.5 C 40 26.115 41.115 25 42.5 25 z " />
  </g>
  <g
     inkscape:groupmode="layer"
     id="layer3"
     inkscape:label="Highlight"
     style="display:none">
    <path
       id="path1632"
       style="fill:none;fill-opacity:1;stroke:#ffffff;stroke-width:1.88976;stroke-linejoin:round;stroke-miterlimit:4;stroke-dasharray:none;stroke-opacity:1"
       d="M 22.5,7 A 15.5,15.5 0 0 0 7,22.5 15.5,15.5 0 0 0 7.0078125,23 H 15.015625 A 7.5,7.5 0 0 1 15,22.5 7.5,7.5 0 0 1 22.5,15 7.5,7.5 0 0 1 30,22.5 7.5,7.5 0 0 1 22.5,30 7.5,7.5 0 0 1 22,29.982422 v 8.007812 A 15.5,15.5 0 0 0 22.5,38 15.5,15.5 0 0 0 38,22.5 15.5,15.5 0 0 0 22.5,7 Z" />
  </g>
</svg>
