<?xml version="1.0" encoding="UTF-8" standalone="no"?>
<svg
   xmlns:dc="http://purl.org/dc/elements/1.1/"
   xmlns:cc="http://creativecommons.org/ns#"
   xmlns:rdf="http://www.w3.org/1999/02/22-rdf-syntax-ns#"
   xmlns:svg="http://www.w3.org/2000/svg"
   xmlns="http://www.w3.org/2000/svg"
   xmlns:sodipodi="http://sodipodi.sourceforge.net/DTD/sodipodi-0.dtd"
   xmlns:inkscape="http://www.inkscape.org/namespaces/inkscape"
   width="60.0px"
   height="60.0px"
   viewBox="0 0 60.0 60.0"
   version="1.1"
   id="SVGRoot"
   sodipodi:docname="reload.svg"
   inkscape:version="1.0.1 (3bc2e813f5, 2020-09-07)">
  <defs
     id="defs833" />
  <sodipodi:namedview
     id="base"
     pagecolor="#ffffff"
     bordercolor="#666666"
     borderopacity="1.0"
     inkscape:pageopacity="0.0"
     inkscape:pageshadow="2"
     inkscape:zoom="15.839192"
     inkscape:cx="32.822332"
     inkscape:cy="33.191397"
     inkscape:document-units="px"
     inkscape:current-layer="layer1"
     inkscape:document-rotation="0"
     showgrid="true"
     inkscape:window-width="1920"
     inkscape:window-height="1017"
     inkscape:window-x="-8"
     inkscape:window-y="-8"
     inkscape:window-maximized="1">
    <inkscape:grid
       type="xygrid"
       id="grid1403" />
  </sodipodi:namedview>
  <metadata
     id="metadata836">
    <rdf:RDF>
      <cc:Work
         rdf:about="">
        <dc:format>image/svg+xml</dc:format>
        <dc:type
           rdf:resource="http://purl.org/dc/dcmitype/StillImage" />
        <dc:title></dc:title>
      </cc:Work>
    </rdf:RDF>
  </metadata>
  <g
     inkscape:label="Layer 1"
     inkscape:groupmode="layer"
     id="layer1"
     style="display:none">
    <circle
       style="fill:none;stroke:#ffffff;stroke-width:9.07087;stroke-linecap:butt;stroke-linejoin:round;stroke-miterlimit:4;stroke-dasharray:none;stroke-opacity:1"
       id="path1412"
       cx="30"
       cy="30"
       r="23" />
  </g>
  <g
     inkscape:groupmode="layer"
     id="layer2"
     inkscape:label="Splid"
     style="display:inline">
    <path
       id="path1421"
       style="fill:#000000;stroke:none;stroke-width:8.69291;stroke-linejoin:round;stroke-miterlimit:4;stroke-dasharray:none;stroke-opacity:1"
       d="M 29.972656 3 A 27 27 0 0 0 20 4.921875 L 20 12.679688 A 20 20 0 0 1 29.972656 10 A 20 20 0 0 1 50 29.962891 L 30 30 L 40 30 L 50 30 L 50 48.136719 A 27 27 0 0 0 57 30 A 27 27 0 0 0 30 3 A 27 27 0 0 0 29.972656 3 z M 10 11.863281 A 27 27 0 0 0 3 30 A 27 27 0 0 0 30 57 A 27 27 0 0 0 40 55.078125 L 40 47.320312 A 20 20 0 0 1 30.009766 50 A 20 20 0 0 1 10 30.017578 A 20 20 0 0 1 10 30 L 10 11.863281 z " />
  </g>
</svg>
