<?xml version="1.0" encoding="UTF-8" standalone="no"?>
<svg
   xmlns:dc="http://purl.org/dc/elements/1.1/"
   xmlns:cc="http://creativecommons.org/ns#"
   xmlns:rdf="http://www.w3.org/1999/02/22-rdf-syntax-ns#"
   xmlns:svg="http://www.w3.org/2000/svg"
   xmlns="http://www.w3.org/2000/svg"
   xmlns:xlink="http://www.w3.org/1999/xlink"
   xmlns:sodipodi="http://sodipodi.sourceforge.net/DTD/sodipodi-0.dtd"
   xmlns:inkscape="http://www.inkscape.org/namespaces/inkscape"
   sodipodi:docname="software.svg"
   id="SVGRoot"
   version="1.1"
   viewBox="0 0 16.0 16.0"
   height="16.0px"
   width="16.0px"
   inkscape:version="1.0.1 (3bc2e813f5, 2020-09-07)">
  <defs
     id="defs833">
    <linearGradient
       inkscape:collect="always"
       id="linearGradient1563">
      <stop
         style="stop-color:#363636;stop-opacity:1"
         offset="0"
         id="stop1559" />
      <stop
         style="stop-color:#4b4b4b;stop-opacity:1"
         offset="1"
         id="stop1561" />
    </linearGradient>
    <inkscape:path-effect
       effect="fillet_chamfer"
       id="path-effect1557"
       is_visible="true"
       lpeversion="1"
       satellites_param="F,0,1,1,0,0.5,0,1 @ F,0,1,1,0,0.5,0,1 @ F,0,1,1,0,0.5,0,1 @ F,0,1,1,0,0.5,0,1 @ F,0,1,1,0,0.5,0,1 @ F,0,1,1,0,0.5,0,1 @ F,0,1,1,0,0.5,0,1 @ F,0,1,1,0,0.5,0,1 @ F,0,1,1,0,0.5,0,1 @ F,0,1,1,0,0.5,0,1 @ F,0,1,1,0,0.5,0,1 @ F,0,1,1,0,0.5,0,1 @ F,0,1,1,0,0.5,0,1 @ F,0,1,1,0,0.5,0,1 @ F,0,1,1,0,0.5,0,1 @ F,0,1,1,0,0.5,0,1 @ F,0,1,1,0,0.5,0,1 @ F,0,1,1,0,0.5,0,1 @ F,0,1,1,0,0.5,0,1 @ F,0,1,1,0,0.5,0,1 @ F,0,1,1,0,0.5,0,1 @ F,0,1,1,0,0.5,0,1 @ F,0,1,1,0,0.5,0,1 @ F,0,1,1,0,0.5,0,1 @ F,0,1,1,0,0.5,0,1 @ F,0,1,1,0,0.5,0,1 @ F,0,1,1,0,0.5,0,1 @ F,0,1,1,0,0.5,0,1 @ F,0,1,1,0,0.5,0,1 @ F,0,1,1,0,0.5,0,1 @ F,0,1,1,0,0.5,0,1 @ F,0,0,1,0,0.5,0,1 | F,0,0,1,0,0,0,1 @ F,0,0,1,0,0,0,1 @ F,0,0,1,0,0,0,1 @ F,0,0,1,0,0,0,1"
       unit="px"
       method="auto"
       mode="F"
       radius="0"
       chamfer_steps="1"
       flexible="false"
       use_knot_distance="true"
       apply_no_radius="true"
       apply_with_radius="true"
       only_selected="false"
       hide_knots="false" />
    <linearGradient
       inkscape:collect="always"
       xlink:href="#linearGradient1563"
       id="linearGradient1565"
       x1="8"
       y1="13.5"
       x2="8"
       y2="0"
       gradientUnits="userSpaceOnUse" />
  </defs>
  <sodipodi:namedview
     id="base"
     pagecolor="#cccccc"
     bordercolor="#666666"
     borderopacity="1.0"
     inkscape:pageopacity="0.15686275"
     inkscape:pageshadow="2"
     inkscape:zoom="22.627417"
     inkscape:cx="-2.7488916"
     inkscape:cy="8.1268319"
     inkscape:document-units="px"
     inkscape:current-layer="layer1"
     inkscape:document-rotation="0"
     showgrid="true"
     inkscape:window-width="1920"
     inkscape:window-height="1009"
     inkscape:window-x="-8"
     inkscape:window-y="-8"
     inkscape:window-maximized="1">
    <inkscape:grid
       type="xygrid"
       id="grid1403" />
    <inkscape:grid
       type="xygrid"
       id="grid1549"
       spacingx="0.5"
       spacingy="0.5" />
  </sodipodi:namedview>
  <metadata
     id="metadata836">
    <rdf:RDF>
      <cc:Work
         rdf:about="">
        <dc:format>image/svg+xml</dc:format>
        <dc:type
           rdf:resource="http://purl.org/dc/dcmitype/StillImage" />
        <dc:title></dc:title>
      </cc:Work>
    </rdf:RDF>
  </metadata>
  <g
     inkscape:label="Layer 1"
     inkscape:groupmode="layer"
     id="layer1">
    <path
       id="rect1499"
       style="fill:url(#linearGradient1565);stroke:#7d7d7d;stroke-width:0.37795276;stroke-linejoin:round;stroke-opacity:1;stroke-miterlimit:4;stroke-dasharray:none;fill-opacity:1"
       d="M 7,1.5 V 2.09375 C 7,2.3698924 6.778881,2.6320797 6.5130581,2.7065127 6.0927912,2.8241914 5.6880091,2.9914816 5.3072851,3.2048398 5.0664745,3.3397904 4.7245213,3.3104588 4.5292591,3.1151966 L 4.1113659,2.6973034 a 0.5,0.5 0 0 0 -0.7071068,0 L 2.6973034,3.4042591 a 0.5,0.5 90 0 0 0,0.7071068 L 3.1151966,4.5292591 C 3.3104588,4.7245213 3.3396324,5.0663647 3.204475,5.3070607 2.9906656,5.6878245 2.8229581,6.0927133 2.7049087,6.5131414 2.6302852,6.7789096 2.3679393,7 2.0917969,7 H 1.5 A 0.5,0.5 135 0 0 1,7.5 v 1 A 0.5,0.5 45 0 0 1.5,9 h 0.59375 c 0.2761424,0 0.5383296,0.221119 0.6127626,0.486942 0.1176788,0.420267 0.2849689,0.825049 0.4983272,1.205773 0.1349506,0.240811 0.105619,0.582764 -0.089643,0.778026 l -0.4178932,0.417894 a 0.49999991,0.49999991 89.999995 0 0 10e-8,0.707106 l 0.7069555,0.706956 a 0.50000009,0.50000009 179.99999 0 0 0.7071069,0 l 0.4178932,-0.417894 c 0.1952622,-0.195262 0.5371056,-0.224435 0.7778017,-0.08928 0.3807637,0.213809 0.7856525,0.381517 1.2060806,0.499566 C 6.7789096,13.369715 7,13.632061 7,13.908203 V 14.5 A 0.5,0.5 45 0 0 7.5,15 h 1 A 0.5,0.5 135 0 0 9,14.5 v -0.59375 c 0,-0.276142 0.221119,-0.53833 0.486942,-0.612763 0.420267,-0.117678 0.825049,-0.284969 1.205773,-0.498327 0.240811,-0.13495 0.582764,-0.105619 0.778026,0.08964 l 0.417894,0.417894 a 0.5,0.5 0 0 0 0.707106,0 l 0.706956,-0.706956 a 0.5,0.5 90 0 0 0,-0.707106 L 12.884803,11.470741 C 12.689541,11.275479 12.660368,10.933636 12.795525,10.69294 13.009334,10.312176 13.177042,9.9072869 13.295091,9.4868586 13.369715,9.2210904 13.632061,9 13.908203,9 H 14.5 A 0.5,0.5 135 0 0 15,8.5 v -1 A 0.5,0.5 45 0 0 14.5,7 H 13.90625 C 13.630108,7 13.36792,6.778881 13.293487,6.5130581 13.175809,6.0927912 13.008518,5.6880091 12.79516,5.3072851 12.66021,5.0664745 12.689541,4.7245213 12.884803,4.5292591 l 0.417894,-0.4178932 a 0.50000009,0.50000009 90.000005 0 0 0,-0.7071069 L 12.595741,2.6973035 a 0.49999991,0.49999991 5.0648212e-6 0 0 -0.707106,-10e-8 L 11.470741,3.1151966 C 11.275479,3.3104588 10.933636,3.3396324 10.69294,3.204475 10.312176,2.9906656 9.9072869,2.822958 9.4868586,2.7049086 9.2210904,2.6302852 9,2.3679393 9,2.0917969 V 1.5 A 0.5,0.5 45 0 0 8.5,1 h -1 A 0.5,0.5 135 0 0 7,1.5 Z m 1,3 c 1.9329966,0 3.5,1.5670034 3.5,3.5 0,1.9329966 -1.5670034,3.5 -3.5,3.5 C 6.0670034,11.5 4.5,9.9329966 4.5,8 4.5,6.0670034 6.0670034,4.5 8,4.5 Z"
       inkscape:path-effect="#path-effect1557"
       inkscape:original-d="m 7,1 v 1.59375 a 5.5,5.5 0 0 0 -2.1171875,0.875 l -1.125,-1.125 -1.4140625,1.4140625 1.125,1.125 A 5.5,5.5 0 0 0 2.5917969,7 H 1 v 2 h 1.59375 a 5.5,5.5 0 0 0 0.875,2.117188 l -1.125,1.125 1.4140625,1.414062 1.125,-1.125 A 5.5,5.5 0 0 0 7,13.408203 V 15 h 2 v -1.59375 a 5.5,5.5 0 0 0 2.117188,-0.875 l 1.125,1.125 1.414062,-1.414062 -1.125,-1.125 A 5.5,5.5 0 0 0 13.408203,9 H 15 V 7 h -1.59375 a 5.5,5.5 0 0 0 -0.875,-2.1171875 l 1.125,-1.125 -1.414062,-1.4140625 -1.125,1.125 A 5.5,5.5 0 0 0 9,2.5917969 V 1 Z M 8,4.5 A 3.5,3.5 0 0 1 11.5,8 3.5,3.5 0 0 1 8,11.5 3.5,3.5 0 0 1 4.5,8 3.5,3.5 0 0 1 8,4.5 Z" />
  </g>
  <g
     inkscape:groupmode="layer"
     id="layer2"
     inkscape:label="Layer 2" />
</svg>
